<svg fill="none" height="75" viewBox="0 0 288 75" width="288" xmlns="http://www.w3.org/2000/svg"><g fill="#fff"><path d="m16.4517 27.68c7.48 0 12.16 1.8 14.04 5.4.72 1.44 1.08 3.34 1.08 5.7 0 2.32-.32 4.16-.96 5.52-.6 1.36-1.8 2.56-3.6 3.6 2.08 1 3.46 2.16 4.14 3.48.68 1.28 1.02 3.32 1.02 6.12 0 7.52-5.24 11.28-15.72 11.28-10.47998 0-15.719981-3.8-15.719981-11.4 0-2.6.380001-4.54 1.140001-5.82.76-1.32 2.12-2.56 4.08-3.72-1.72-1.04-2.9-2.22-3.54-3.54-.64-1.36-.96-3.34-.96-5.94 0-7.12 5-10.68 14.99998-10.68zm0 30.96c.84 0 1.44-.18 1.8-.54.4-.4.6-1.18.6-2.34s-.52-2.26-1.56-3.3h-1.62c-1.08.88-1.62 2.14-1.62 3.78 0 1.6.8 2.4 2.4 2.4zm-.06-20.94c-.72 0-1.22.22-1.5.66-.24.44-.36 1.16-.36 2.16s.38 1.96 1.14 2.88h1.62c.76-.8 1.14-1.8 1.14-3 0-1.8-.68-2.7-2.04-2.7z"/><path d="m98.0434 28.46v39.54h-13.62v-24.96l-8.28 3.3-3.6-9.72 14.04-8.16zm26.9886 0v39.54h-13.62v-24.96l-8.28 3.3-3.6003-9.72 14.0403-8.16z"/><path d="m40.9 67 2.96-13.4h7.02l3.02 13.4h-4.68l-.38-1.54h-3.06l-.32 1.54zm6.24-9.76-.76 4.68h1.98l-.72-4.68zm14.5005-3.64v8.78c0 .3867.0933.66.28.82.2.16.5266.24.98.24.4533 0 .7733-.08.96-.24.1866-.16.28-.4333.28-.82v-8.78h4.64v8.52c0 1.8933-.4734 3.2267-1.42 4-.9467.76-2.44 1.14-4.48 1.14-2.0267 0-3.5134-.3733-4.46-1.12-.9467-.7467-1.42-2.06-1.42-3.94v-8.6z"/><path d="m142.88 53.6v9.86c0 1.3067-.32 2.2667-.96 2.88-.493.4933-1.387.78-2.68.86-.493.04-1.14.06-1.94.06v-3.82h.38c.08-.0133.16-.0533.24-.12.093-.08.153-.1667.18-.26s.053-.26.08-.5c.04-.3733.06-1.04.06-2v-6.96zm8.706 0v8.78c0 .3867.093.66.28.82.2.16.526.24.98.24.453 0 .773-.08.96-.24.186-.16.28-.4333.28-.82v-8.78h4.64v8.52c0 1.8933-.474 3.2267-1.42 4-.947.76-2.44 1.14-4.48 1.14-2.027 0-3.514-.3733-4.46-1.12-.947-.7467-1.42-2.06-1.42-3.94v-8.6zm11.252 13.4v-13.4h4.64v13.4zm17.84 0h-9v-13.4h4.64v9.62h4.36zm12.785 0h-9v-13.4h4.64v9.62h4.36zm3.785 0v-13.4h10.04v3.7h-5.4v1.14h4.2v3.66h-4.2v1.2h5.4v3.7zm13.557-9.62v-3.78h10v3.78h-2.6v9.62h-4.64v-9.62zm30.508 9.62h-9.16v-3.44l1.74-1.68c.373-.3467.733-.6933 1.08-1.04 0 0 .28-.28.84-.84.227-.2267.433-.48.62-.76s.293-.4867.32-.62c.04-.1467.06-.2933.06-.44 0-.3467-.1-.5667-.3-.66s-.553-.14-1.06-.14c-.96 0-1.84.0733-2.64.22l-.42.08-.2-3.42c1.387-.4933 2.833-.74 4.34-.74 1.52 0 2.707.3467 3.56 1.04.867.68 1.3 1.6333 1.3 2.86 0 1.2133-.2 2.1667-.6 2.86s-1.147 1.42-2.24 2.18l-1.34.94h4.1zm4.236-6.58c0-2.4267.393-4.1733 1.18-5.24.787-1.08 2.147-1.62 4.08-1.62s3.28.5333 4.04 1.6c.76 1.0533 1.14 2.8 1.14 5.24 0 2.4267-.387 4.18-1.16 5.26-.76 1.0667-2.113 1.6-4.06 1.6s-3.307-.5333-4.08-1.6c-.76-1.08-1.14-2.8267-1.14-5.24zm5.56-3c-.08-.0667-.193-.1-.34-.1s-.26.0333-.34.1-.147.2133-.2.44c-.093.4-.14 1.2533-.14 2.56 0 1.2933.04 2.1333.12 2.52.093.3733.28.56.56.56s.46-.1867.54-.56c.093-.3867.14-1.08.14-2.08s-.013-1.6933-.04-2.08c-.013-.3867-.047-.6933-.1-.92s-.12-.3733-.2-.44zm17.516-3.6v13.18h-4.54v-8.32l-2.76 1.1-1.2-3.24 4.68-2.72zm10.136-.26c2.494 0 4.054.6 4.68 1.8.24.48.36 1.1133.36 1.9 0 .7733-.106 1.3867-.32 1.84-.2.4533-.6.8533-1.2 1.2.694.3333 1.154.72 1.38 1.16.227.4267.34 1.1067.34 2.04 0 2.5067-1.746 3.76-5.24 3.76-3.493 0-5.24-1.2667-5.24-3.8 0-.8667.127-1.5133.38-1.94.254-.44.707-.8533 1.36-1.24-.573-.3467-.966-.74-1.18-1.18-.213-.4533-.32-1.1133-.32-1.98 0-2.3733 1.667-3.56 5-3.56zm0 10.32c.28 0 .48-.06.6-.18.134-.1333.2-.3933.2-.78s-.173-.7533-.52-1.1h-.54c-.36.2933-.54.7133-.54 1.26 0 .5333.267.8.8.8zm-.02-6.98c-.24 0-.406.0733-.5.22-.08.1467-.12.3867-.12.72s.127.6533.38.96h.54c.254-.2667.38-.6.38-1 0-.6-.226-.9-.68-.9z"/></g></svg>